<svg xmlns="http://www.w3.org/2000/svg" xmlns:xlink="http://www.w3.org/1999/xlink" contentStyleType="text/css" height="545px" preserveAspectRatio="none" style="width:839px;height:545px;background:#FFFFFF;" version="1.1" viewBox="0 0 839 545" width="839px" zoomAndPan="magnify"><title>Power Pellet Eaten &#8212; Ghost Frightened Sequence</title><defs/><g><text fill="#000000" font-family="sans-serif" font-size="14" font-weight="bold" lengthAdjust="spacing" textLength="344.7908" x="246.5195" y="29.9659">Power Pellet Eaten &#8212; Ghost Frightened Sequence</text><line style="stroke:#181818;stroke-width:0.5;stroke-dasharray:5.0,5.0;" x1="68" x2="68" y1="79.1358" y2="410.196"/><line style="stroke:#A80036;stroke-width:1;stroke-dasharray:1.0,4.0;" x1="68" x2="68" y1="410.196" y2="453.1779"/><line style="stroke:#181818;stroke-width:0.5;stroke-dasharray:5.0,5.0;" x1="68" x2="68" y1="453.1779" y2="507.8839"/><line style="stroke:#181818;stroke-width:0.5;stroke-dasharray:5.0,5.0;" x1="251.8171" x2="251.8171" y1="79.1358" y2="410.196"/><line style="stroke:#A80036;stroke-width:1;stroke-dasharray:1.0,4.0;" x1="251.8171" x2="251.8171" y1="410.196" y2="453.1779"/><line style="stroke:#181818;stroke-width:0.5;stroke-dasharray:5.0,5.0;" x1="251.8171" x2="251.8171" y1="453.1779" y2="507.8839"/><line style="stroke:#181818;stroke-width:0.5;stroke-dasharray:5.0,5.0;" x1="406.8072" x2="406.8072" y1="79.1358" y2="410.196"/><line style="stroke:#A80036;stroke-width:1;stroke-dasharray:1.0,4.0;" x1="406.8072" x2="406.8072" y1="410.196" y2="453.1779"/><line style="stroke:#181818;stroke-width:0.5;stroke-dasharray:5.0,5.0;" x1="406.8072" x2="406.8072" y1="453.1779" y2="507.8839"/><line style="stroke:#181818;stroke-width:0.5;stroke-dasharray:5.0,5.0;" x1="540.4989" x2="540.4989" y1="79.1358" y2="410.196"/><line style="stroke:#A80036;stroke-width:1;stroke-dasharray:1.0,4.0;" x1="540.4989" x2="540.4989" y1="410.196" y2="453.1779"/><line style="stroke:#181818;stroke-width:0.5;stroke-dasharray:5.0,5.0;" x1="540.4989" x2="540.4989" y1="453.1779" y2="507.8839"/><line style="stroke:#181818;stroke-width:0.5;stroke-dasharray:5.0,5.0;" x1="779.632" x2="779.632" y1="79.1358" y2="410.196"/><line style="stroke:#A80036;stroke-width:1;stroke-dasharray:1.0,4.0;" x1="779.632" x2="779.632" y1="410.196" y2="453.1779"/><line style="stroke:#181818;stroke-width:0.5;stroke-dasharray:5.0,5.0;" x1="779.632" x2="779.632" y1="453.1779" y2="507.8839"/><rect fill="#E2E2F0" height="33.0679" rx="2.5" ry="2.5" style="stroke:#181818;stroke-width:0.5;" width="126.6856" x="5" y="45.0679"/><text fill="#000000" font-family="sans-serif" font-size="14" lengthAdjust="spacing" textLength="112.6856" x="12" y="67.0339">CollisionDetector</text><rect fill="#E2E2F0" height="33.0679" rx="2.5" ry="2.5" style="stroke:#181818;stroke-width:0.5;" width="126.6856" x="5" y="506.8839"/><text fill="#000000" font-family="sans-serif" font-size="14" lengthAdjust="spacing" textLength="112.6856" x="12" y="528.8498">CollisionDetector</text><rect fill="#E2E2F0" height="33.0679" rx="2.5" ry="2.5" style="stroke:#181818;stroke-width:0.5;" width="74.9557" x="214.8171" y="45.0679"/><text fill="#000000" font-family="sans-serif" font-size="14" lengthAdjust="spacing" textLength="60.9557" x="221.8171" y="67.0339">EventBus</text><rect fill="#E2E2F0" height="33.0679" rx="2.5" ry="2.5" style="stroke:#181818;stroke-width:0.5;" width="74.9557" x="214.8171" y="506.8839"/><text fill="#000000" font-family="sans-serif" font-size="14" lengthAdjust="spacing" textLength="60.9557" x="221.8171" y="528.8498">EventBus</text><rect fill="#E2E2F0" height="33.0679" rx="2.5" ry="2.5" style="stroke:#181818;stroke-width:0.5;" width="104.6917" x="354.8072" y="45.0679"/><text fill="#000000" font-family="sans-serif" font-size="14" lengthAdjust="spacing" textLength="90.6917" x="361.8072" y="67.0339">PlayerModule</text><rect fill="#E2E2F0" height="33.0679" rx="2.5" ry="2.5" style="stroke:#181818;stroke-width:0.5;" width="104.6917" x="354.8072" y="506.8839"/><text fill="#000000" font-family="sans-serif" font-size="14" lengthAdjust="spacing" textLength="90.6917" x="361.8072" y="528.8498">PlayerModule</text><rect fill="#E2E2F0" height="33.0679" rx="2.5" ry="2.5" style="stroke:#181818;stroke-width:0.5;" width="142.7015" x="469.4989" y="45.0679"/><text fill="#000000" font-family="sans-serif" font-size="14" lengthAdjust="spacing" textLength="128.7015" x="476.4989" y="67.0339">GhostStateMachine</text><rect fill="#E2E2F0" height="33.0679" rx="2.5" ry="2.5" style="stroke:#181818;stroke-width:0.5;" width="142.7015" x="469.4989" y="506.8839"/><text fill="#000000" font-family="sans-serif" font-size="14" lengthAdjust="spacing" textLength="128.7015" x="476.4989" y="528.8498">GhostStateMachine</text><rect fill="#E2E2F0" height="33.0679" rx="2.5" ry="2.5" style="stroke:#181818;stroke-width:0.5;" width="107.1976" x="726.632" y="45.0679"/><text fill="#000000" font-family="sans-serif" font-size="14" lengthAdjust="spacing" textLength="93.1976" x="733.632" y="67.0339">LevelManager</text><rect fill="#E2E2F0" height="33.0679" rx="2.5" ry="2.5" style="stroke:#181818;stroke-width:0.5;" width="107.1976" x="726.632" y="506.8839"/><text fill="#000000" font-family="sans-serif" font-size="14" lengthAdjust="spacing" textLength="93.1976" x="733.632" y="528.8498">LevelManager</text><polygon fill="#181818" points="240.2949,108.8419,250.2949,112.8419,240.2949,116.8419,244.2949,112.8419" style="stroke:#181818;stroke-width:1;"/><line style="stroke:#181818;stroke-width:1;" x1="68.3428" x2="246.2949" y1="112.8419" y2="112.8419"/><text fill="#000000" font-family="sans-serif" font-size="13" lengthAdjust="spacing" textLength="159.9521" x="75.3428" y="107.0328">publish(PowerPelletEaten)</text><polygon fill="#181818" points="395.153,140.5479,405.153,144.5479,395.153,148.5479,399.153,144.5479" style="stroke:#181818;stroke-width:1;"/><line style="stroke:#181818;stroke-width:1;" x1="252.2949" x2="401.153" y1="144.5479" y2="144.5479"/><text fill="#000000" font-family="sans-serif" font-size="13" lengthAdjust="spacing" textLength="130.8581" x="259.2949" y="138.7389">on(PowerPelletEaten)</text><line style="stroke:#181818;stroke-width:1;" x1="407.153" x2="449.153" y1="176.2539" y2="176.2539"/><line style="stroke:#181818;stroke-width:1;" x1="449.153" x2="449.153" y1="176.2539" y2="189.2539"/><line style="stroke:#181818;stroke-width:1;" x1="408.153" x2="449.153" y1="189.2539" y2="189.2539"/><polygon fill="#181818" points="418.153,185.2539,408.153,189.2539,418.153,193.2539,414.153,189.2539" style="stroke:#181818;stroke-width:1;"/><text fill="#000000" font-family="sans-serif" font-size="13" lengthAdjust="spacing" textLength="84.7601" x="414.153" y="170.4449">add_score(50)</text><polygon fill="#181818" points="528.8496,216.9599,538.8496,220.9599,528.8496,224.9599,532.8496,220.9599" style="stroke:#181818;stroke-width:1;"/><line style="stroke:#181818;stroke-width:1;" x1="252.2949" x2="534.8496" y1="220.9599" y2="220.9599"/><text fill="#000000" font-family="sans-serif" font-size="13" lengthAdjust="spacing" textLength="130.8581" x="259.2949" y="215.1509">on(PowerPelletEaten)</text><polygon fill="#181818" points="768.2309,248.6659,778.2309,252.6659,768.2309,256.6659,772.2309,252.6659" style="stroke:#181818;stroke-width:1;"/><line style="stroke:#181818;stroke-width:1;" x1="540.8496" x2="774.2309" y1="252.6659" y2="252.6659"/><text fill="#000000" font-family="sans-serif" font-size="13" lengthAdjust="spacing" textLength="156.6112" x="547.8496" y="246.8569">get_frightened_duration()</text><polygon fill="#181818" points="551.8496,280.3719,541.8496,284.3719,551.8496,288.3719,547.8496,284.3719" style="stroke:#181818;stroke-width:1;"/><line style="stroke:#181818;stroke-width:1;stroke-dasharray:2.0,2.0;" x1="545.8496" x2="779.2309" y1="284.3719" y2="284.3719"/><text fill="#000000" font-family="sans-serif" font-size="13" lengthAdjust="spacing" textLength="162.7212" x="557.8496" y="278.5629">duration (level-dependent)</text><line style="stroke:#181818;stroke-width:1;" x1="540.8496" x2="582.8496" y1="316.0779" y2="316.0779"/><line style="stroke:#181818;stroke-width:1;" x1="582.8496" x2="582.8496" y1="316.0779" y2="329.0779"/><line style="stroke:#181818;stroke-width:1;" x1="541.8496" x2="582.8496" y1="329.0779" y2="329.0779"/><polygon fill="#181818" points="551.8496,325.0779,541.8496,329.0779,551.8496,333.0779,547.8496,329.0779" style="stroke:#181818;stroke-width:1;"/><text fill="#000000" font-family="sans-serif" font-size="13" lengthAdjust="spacing" textLength="225.3812" x="547.8496" y="310.2689">transition_all(FRIGHTENED, duration)</text><path d="M545,342.0779 L545,405.0779 L802,405.0779 L802,352.0779 L792,342.0779 L545,342.0779 " fill="#FEFFDD" style="stroke:#181818;stroke-width:0.5;"/><path d="M792,342.0779 L792,352.0779 L802,352.0779 L792,342.0779 " fill="#FEFFDD" style="stroke:#181818;stroke-width:0.5;"/><text fill="#000000" font-family="sans-serif" font-size="13" lengthAdjust="spacing" textLength="205.7772" x="551" y="360.975">All ghosts enter frightened mode.</text><text fill="#000000" font-family="sans-serif" font-size="13" lengthAdjust="spacing" textLength="187.4602" x="551" y="378.681">They reverse direction and use</text><text fill="#000000" font-family="sans-serif" font-size="13" lengthAdjust="spacing" textLength="236.7432" x="551" y="396.387">random movement until timer expires.</text><text fill="#000000" font-family="sans-serif" font-size="11" lengthAdjust="spacing" textLength="68.3425" x="390.1156" y="435.9549">timer expires</text><line style="stroke:#181818;stroke-width:1;" x1="540.8496" x2="582.8496" y1="476.8839" y2="476.8839"/><line style="stroke:#181818;stroke-width:1;" x1="582.8496" x2="582.8496" y1="476.8839" y2="489.8839"/><line style="stroke:#181818;stroke-width:1;" x1="541.8496" x2="582.8496" y1="489.8839" y2="489.8839"/><polygon fill="#181818" points="551.8496,485.8839,541.8496,489.8839,551.8496,493.8839,547.8496,489.8839" style="stroke:#181818;stroke-width:1;"/><text fill="#000000" font-family="sans-serif" font-size="13" lengthAdjust="spacing" textLength="180.3882" x="547.8496" y="471.0749">transition_all(previous_mode)</text><!--SRC=[VP9DJiCm44RtFiMegrIY4HisNI01_G69eefs7vbucbXox61F2jrn24x8IHWxj109M6Rc-PldSKYJGLYx5_ImHcEGO2u9BNoylSEoTe5WuNLLSmaLRF2vGrkY4Atqf4lTIaimkd76wA2TdI5XISwFG0OeZzKXFD-ZfUik90RZHnW2QoCFw5TETGOJrAR244fg6sBLbInhRNko2iqGk-S1PYMjhB2NCh4WnCaD9fTV4bDekoSkrbdQHh-Cj8kn43qIuLvc2ix-mlNDdvXKgWYbyvXTd0zoMFMF4Ev489bEeK8gTgSNA5Jd9R5tDXO9WCanwzY1B3Kc2bkqYiUT4XD6NjgW8rX8OxB5uztoTZj_cC_EJWdiQHqXfAdWTccj05V6G1NNpizcYQ_vhGMDKvWpiwtn09xd-u2WjEU_8If9gw0Bo01FLwvXVeyDfq1dIHiWtN0UlhPy8kI2lI4Q297d-R09N17_NQZbwTfreOXAO_49]--></g></svg>