<svg xmlns="http://www.w3.org/2000/svg" xmlns:xlink="http://www.w3.org/1999/xlink" contentStyleType="text/css" height="861px" preserveAspectRatio="none" style="width:1026px;height:861px;background:#FFFFFF;" version="1.1" viewBox="0 0 1026 861" width="1026px" zoomAndPan="magnify"><title>Ghost Collision Scenarios</title><defs/><g><text fill="#000000" font-family="sans-serif" font-size="14" font-weight="bold" lengthAdjust="spacing" textLength="174.8874" x="421.7677" y="29.9659">Ghost Collision Scenarios</text><rect fill="none" height="252.924" style="stroke:#000000;stroke-width:1.5;" width="691.8045" x="317.6182" y="249.9599"/><line style="stroke:#181818;stroke-width:0.5;stroke-dasharray:5.0,5.0;" x1="68" x2="68" y1="79.1358" y2="823.2381"/><line style="stroke:#181818;stroke-width:0.5;stroke-dasharray:5.0,5.0;" x1="364.6182" x2="364.6182" y1="79.1358" y2="823.2381"/><line style="stroke:#181818;stroke-width:0.5;stroke-dasharray:5.0,5.0;" x1="507.2454" x2="507.2454" y1="79.1358" y2="823.2381"/><line style="stroke:#181818;stroke-width:0.5;stroke-dasharray:5.0,5.0;" x1="686.3536" x2="686.3536" y1="79.1358" y2="823.2381"/><line style="stroke:#181818;stroke-width:0.5;stroke-dasharray:5.0,5.0;" x1="846.9168" x2="846.9168" y1="79.1358" y2="823.2381"/><rect fill="#E2E2F0" height="33.0679" rx="2.5" ry="2.5" style="stroke:#181818;stroke-width:0.5;" width="126.6856" x="5" y="45.0679"/><text fill="#000000" font-family="sans-serif" font-size="14" lengthAdjust="spacing" textLength="112.6856" x="12" y="67.0339">CollisionDetector</text><rect fill="#E2E2F0" height="33.0679" rx="2.5" ry="2.5" style="stroke:#181818;stroke-width:0.5;" width="126.6856" x="5" y="822.2381"/><text fill="#000000" font-family="sans-serif" font-size="14" lengthAdjust="spacing" textLength="112.6856" x="12" y="844.204">CollisionDetector</text><rect fill="#E2E2F0" height="33.0679" rx="2.5" ry="2.5" style="stroke:#181818;stroke-width:0.5;" width="74.9557" x="327.6182" y="45.0679"/><text fill="#000000" font-family="sans-serif" font-size="14" lengthAdjust="spacing" textLength="60.9557" x="334.6182" y="67.0339">EventBus</text><rect fill="#E2E2F0" height="33.0679" rx="2.5" ry="2.5" style="stroke:#181818;stroke-width:0.5;" width="74.9557" x="327.6182" y="822.2381"/><text fill="#000000" font-family="sans-serif" font-size="14" lengthAdjust="spacing" textLength="60.9557" x="334.6182" y="844.204">EventBus</text><rect fill="#E2E2F0" height="33.0679" rx="2.5" ry="2.5" style="stroke:#181818;stroke-width:0.5;" width="104.6917" x="455.2454" y="45.0679"/><text fill="#000000" font-family="sans-serif" font-size="14" lengthAdjust="spacing" textLength="90.6917" x="462.2454" y="67.0339">PlayerModule</text><rect fill="#E2E2F0" height="33.0679" rx="2.5" ry="2.5" style="stroke:#181818;stroke-width:0.5;" width="104.6917" x="455.2454" y="822.2381"/><text fill="#000000" font-family="sans-serif" font-size="14" lengthAdjust="spacing" textLength="90.6917" x="462.2454" y="844.204">PlayerModule</text><rect fill="#E2E2F0" height="33.0679" rx="2.5" ry="2.5" style="stroke:#181818;stroke-width:0.5;" width="142.7015" x="615.3536" y="45.0679"/><text fill="#000000" font-family="sans-serif" font-size="14" lengthAdjust="spacing" textLength="128.7015" x="622.3536" y="67.0339">GhostStateMachine</text><rect fill="#E2E2F0" height="33.0679" rx="2.5" ry="2.5" style="stroke:#181818;stroke-width:0.5;" width="142.7015" x="615.3536" y="822.2381"/><text fill="#000000" font-family="sans-serif" font-size="14" lengthAdjust="spacing" textLength="128.7015" x="622.3536" y="844.204">GhostStateMachine</text><rect fill="#E2E2F0" height="33.0679" rx="2.5" ry="2.5" style="stroke:#181818;stroke-width:0.5;" width="145.9215" x="774.9168" y="45.0679"/><text fill="#000000" font-family="sans-serif" font-size="14" lengthAdjust="spacing" textLength="131.9215" x="781.9168" y="67.0339">GameStateManager</text><rect fill="#E2E2F0" height="33.0679" rx="2.5" ry="2.5" style="stroke:#181818;stroke-width:0.5;" width="145.9215" x="774.9168" y="822.2381"/><text fill="#000000" font-family="sans-serif" font-size="14" lengthAdjust="spacing" textLength="131.9215" x="781.9168" y="844.204">GameStateManager</text><rect fill="#EEEEEE" height="3" style="stroke:#EEEEEE;stroke-width:1;" width="1019.4227" x="0" y="110.9888"/><line style="stroke:#000000;stroke-width:1;" x1="0" x2="1019.4227" y1="110.9888" y2="110.9888"/><line style="stroke:#000000;stroke-width:1;" x1="0" x2="1019.4227" y1="113.9888" y2="113.9888"/><rect fill="#EEEEEE" height="25.706" style="stroke:#000000;stroke-width:2;" width="298.7262" x="360.3483" y="99.1358"/><text fill="#000000" font-family="sans-serif" font-size="13" font-weight="bold" lengthAdjust="spacing" textLength="281.3462" x="366.3483" y="117.0328">PacMan hits ghost in CHASE/SCATTER mode</text><polygon fill="#181818" points="353.0961,154.5479,363.0961,158.5479,353.0961,162.5479,357.0961,158.5479" style="stroke:#181818;stroke-width:1;"/><line style="stroke:#181818;stroke-width:1;" x1="68.3428" x2="359.0961" y1="158.5479" y2="158.5479"/><text fill="#000000" font-family="sans-serif" font-size="13" lengthAdjust="spacing" textLength="233.8832" x="75.3428" y="152.7389">publish(GhostCollision{mode=CHASE})</text><polygon fill="#181818" points="495.5912,186.2539,505.5912,190.2539,495.5912,194.2539,499.5912,190.2539" style="stroke:#181818;stroke-width:1;"/><line style="stroke:#181818;stroke-width:1;" x1="365.0961" x2="501.5912" y1="190.2539" y2="190.2539"/><text fill="#000000" font-family="sans-serif" font-size="13" lengthAdjust="spacing" textLength="111.6051" x="372.0961" y="184.4449">on(GhostCollision)</text><line style="stroke:#181818;stroke-width:1;" x1="507.5912" x2="549.5912" y1="221.9599" y2="221.9599"/><line style="stroke:#181818;stroke-width:1;" x1="549.5912" x2="549.5912" y1="221.9599" y2="234.9599"/><line style="stroke:#181818;stroke-width:1;" x1="508.5912" x2="549.5912" y1="234.9599" y2="234.9599"/><polygon fill="#181818" points="518.5912,230.9599,508.5912,234.9599,518.5912,238.9599,514.5912,234.9599" style="stroke:#181818;stroke-width:1;"/><text fill="#000000" font-family="sans-serif" font-size="13" lengthAdjust="spacing" textLength="56.862" x="514.5912" y="216.1509">lose_life()</text><path d="M317.6182,249.9599 L380.0772,249.9599 L380.0772,259.6659 L370.0772,269.6659 L317.6182,269.6659 L317.6182,249.9599 " fill="#EEEEEE" style="stroke:#000000;stroke-width:1.5;"/><rect fill="none" height="252.924" style="stroke:#000000;stroke-width:1.5;" width="691.8045" x="317.6182" y="249.9599"/><text fill="#000000" font-family="sans-serif" font-size="13" font-weight="bold" lengthAdjust="spacing" textLength="17.459" x="332.6182" y="264.8569">alt</text><text fill="#000000" font-family="sans-serif" font-size="11" font-weight="bold" lengthAdjust="spacing" textLength="50.5226" x="395.0772" y="263.7188">[lives &gt; 0]</text><polygon fill="#181818" points="376.0961,289.3719,366.0961,293.3719,376.0961,297.3719,372.0961,293.3719" style="stroke:#181818;stroke-width:1;"/><line style="stroke:#181818;stroke-width:1;" x1="370.0961" x2="506.5912" y1="293.3719" y2="293.3719"/><text fill="#000000" font-family="sans-serif" font-size="13" lengthAdjust="spacing" textLength="100.3601" x="382.0961" y="287.5629">publish(LifeLost)</text><polygon fill="#181818" points="835.8775,321.0779,845.8775,325.0779,835.8775,329.0779,839.8775,325.0779" style="stroke:#181818;stroke-width:1;"/><line style="stroke:#181818;stroke-width:1;" x1="365.0961" x2="841.8775" y1="325.0779" y2="325.0779"/><text fill="#000000" font-family="sans-serif" font-size="13" lengthAdjust="spacing" textLength="71.2661" x="372.0961" y="319.2689">on(LifeLost)</text><line style="stroke:#181818;stroke-width:1;" x1="847.8775" x2="889.8775" y1="356.784" y2="356.784"/><line style="stroke:#181818;stroke-width:1;" x1="889.8775" x2="889.8775" y1="356.784" y2="369.784"/><line style="stroke:#181818;stroke-width:1;" x1="848.8775" x2="889.8775" y1="369.784" y2="369.784"/><polygon fill="#181818" points="858.8775,365.784,848.8775,369.784,858.8775,373.784,854.8775,369.784" style="stroke:#181818;stroke-width:1;"/><text fill="#000000" font-family="sans-serif" font-size="13" lengthAdjust="spacing" textLength="100.1391" x="854.8775" y="350.975">reset_positions()</text><line style="stroke:#000000;stroke-width:1;stroke-dasharray:2.0,2.0;" x1="317.6182" x2="1009.4227" y1="378.784" y2="378.784"/><text fill="#000000" font-family="sans-serif" font-size="11" font-weight="bold" lengthAdjust="spacing" textLength="56.8146" x="322.6182" y="390.5429">[lives == 0]</text><polygon fill="#181818" points="376.0961,414.4719,366.0961,418.4719,376.0961,422.4719,372.0961,418.4719" style="stroke:#181818;stroke-width:1;"/><line style="stroke:#181818;stroke-width:1;" x1="370.0961" x2="506.5912" y1="418.4719" y2="418.4719"/><text fill="#000000" font-family="sans-serif" font-size="13" lengthAdjust="spacing" textLength="118.4951" x="382.0961" y="412.6629">publish(GameOver)</text><polygon fill="#181818" points="835.8775,446.1779,845.8775,450.1779,835.8775,454.1779,839.8775,450.1779" style="stroke:#181818;stroke-width:1;"/><line style="stroke:#181818;stroke-width:1;" x1="365.0961" x2="841.8775" y1="450.1779" y2="450.1779"/><text fill="#000000" font-family="sans-serif" font-size="13" lengthAdjust="spacing" textLength="89.4011" x="372.0961" y="444.3689">on(GameOver)</text><line style="stroke:#181818;stroke-width:1;" x1="847.8775" x2="889.8775" y1="481.8839" y2="481.8839"/><line style="stroke:#181818;stroke-width:1;" x1="889.8775" x2="889.8775" y1="481.8839" y2="494.8839"/><line style="stroke:#181818;stroke-width:1;" x1="848.8775" x2="889.8775" y1="494.8839" y2="494.8839"/><polygon fill="#181818" points="858.8775,490.8839,848.8775,494.8839,858.8775,498.8839,854.8775,494.8839" style="stroke:#181818;stroke-width:1;"/><text fill="#000000" font-family="sans-serif" font-size="13" lengthAdjust="spacing" textLength="142.5452" x="854.8775" y="476.0749">transition(GAME_OVER)</text><rect fill="#EEEEEE" height="3" style="stroke:#EEEEEE;stroke-width:1;" width="1019.4227" x="0" y="531.7369"/><line style="stroke:#000000;stroke-width:1;" x1="0" x2="1019.4227" y1="531.7369" y2="531.7369"/><line style="stroke:#000000;stroke-width:1;" x1="0" x2="1019.4227" y1="534.7369" y2="534.7369"/><rect fill="#EEEEEE" height="25.706" style="stroke:#000000;stroke-width:2;" width="278.7972" x="370.3128" y="519.8839"/><text fill="#000000" font-family="sans-serif" font-size="13" font-weight="bold" lengthAdjust="spacing" textLength="261.4172" x="376.3128" y="537.7809">PacMan hits ghost in FRIGHTENED mode</text><polygon fill="#181818" points="353.0961,575.2959,363.0961,579.2959,353.0961,583.2959,357.0961,579.2959" style="stroke:#181818;stroke-width:1;"/><line style="stroke:#181818;stroke-width:1;" x1="68.3428" x2="359.0961" y1="579.2959" y2="579.2959"/><text fill="#000000" font-family="sans-serif" font-size="13" lengthAdjust="spacing" textLength="272.7533" x="75.3428" y="573.4869">publish(GhostCollision{mode=FRIGHTENED})</text><polygon fill="#181818" points="495.5912,607.002,505.5912,611.002,495.5912,615.002,499.5912,611.002" style="stroke:#181818;stroke-width:1;"/><line style="stroke:#181818;stroke-width:1;" x1="365.0961" x2="501.5912" y1="611.002" y2="611.002"/><text fill="#000000" font-family="sans-serif" font-size="13" lengthAdjust="spacing" textLength="111.6051" x="372.0961" y="605.1929">on(GhostCollision)</text><line style="stroke:#181818;stroke-width:1;" x1="507.5912" x2="549.5912" y1="642.708" y2="642.708"/><line style="stroke:#181818;stroke-width:1;" x1="549.5912" x2="549.5912" y1="642.708" y2="655.708"/><line style="stroke:#181818;stroke-width:1;" x1="508.5912" x2="549.5912" y1="655.708" y2="655.708"/><polygon fill="#181818" points="518.5912,651.708,508.5912,655.708,518.5912,659.708,514.5912,655.708" style="stroke:#181818;stroke-width:1;"/><text fill="#000000" font-family="sans-serif" font-size="13" lengthAdjust="spacing" textLength="165.1132" x="514.5912" y="636.899">add_score(200 * multiplier)</text><polygon fill="#181818" points="674.7044,683.414,684.7044,687.414,674.7044,691.414,678.7044,687.414" style="stroke:#181818;stroke-width:1;"/><line style="stroke:#181818;stroke-width:1;" x1="365.0961" x2="680.7044" y1="687.414" y2="687.414"/><text fill="#000000" font-family="sans-serif" font-size="13" lengthAdjust="spacing" textLength="111.6051" x="372.0961" y="681.605">on(GhostCollision)</text><line style="stroke:#181818;stroke-width:1;" x1="686.7044" x2="728.7044" y1="719.12" y2="719.12"/><line style="stroke:#181818;stroke-width:1;" x1="728.7044" x2="728.7044" y1="719.12" y2="732.12"/><line style="stroke:#181818;stroke-width:1;" x1="687.7044" x2="728.7044" y1="732.12" y2="732.12"/><polygon fill="#181818" points="697.7044,728.12,687.7044,732.12,697.7044,736.12,693.7044,732.12" style="stroke:#181818;stroke-width:1;"/><text fill="#000000" font-family="sans-serif" font-size="13" lengthAdjust="spacing" textLength="147.1732" x="693.7044" y="713.311">transition_ghost(EATEN)</text><path d="M691,745.12 L691,808.12 L846,808.12 L846,755.12 L836,745.12 L691,745.12 " fill="#FEFFDD" style="stroke:#181818;stroke-width:0.5;"/><path d="M836,745.12 L836,755.12 L846,755.12 L836,745.12 " fill="#FEFFDD" style="stroke:#181818;stroke-width:0.5;"/><text fill="#000000" font-family="sans-serif" font-size="13" lengthAdjust="spacing" textLength="134.9791" x="697" y="764.017">Eaten ghost navigates</text><text fill="#000000" font-family="sans-serif" font-size="13" lengthAdjust="spacing" textLength="126.9581" x="697" y="781.723">back to ghost house,</text><text fill="#000000" font-family="sans-serif" font-size="13" lengthAdjust="spacing" textLength="93.6521" x="697" y="799.429">then respawns.</text><!--SRC=[fL9DRzim3BthLn0zESK-WXuBk42MQcc1PYsIO5T3jTbOc28P8fsX6FRVHyjU4WShTgXlUdnyZtmqMtO8YpeGmpmuPya63-iIlOasa5ADYMnBsnZFS75Wt29ZoI5UW24e_w9ZijwZvoyj9Gvs3neJdfnvnRWCLUimaPe4Z4bfj3KRngKfQ-jxvfPsPpIpmu7bpHRxmQW3bCfpU3Ab5A2sBBrfMUjXVZTRwy_h-MopqIlOXGeXpvKwh0CVRuQvhw5fdmMiipJE8OPVNLEUT7vFbEh9NLk_oJK4VzOnKNtfbEG2OU7i2sQYOHo3itiak86f0lcE3UV3F4ZFWwXF4k_edlPEvcD6may84GcvQ09Pbj58xD4H3lQIsl_ykz0VznZVzXypplqv6jzxPulPKXUFt_LAPl3LspVxkhfVt6tqDttxZeCTHTvnDLDL1PKXOdOrdS8bx5h7jd6sM_P4K_xKVmeAVYWVSoZIefcUoNGYuuFa5UssPWWlwQS7q1AT7mBnPc-tyYR1dqtv0pWCbJgqX1y4vbhOSkZ6_FJqgGiNEbNr1m00]--></g></svg>