<svg xmlns="http://www.w3.org/2000/svg" xmlns:xlink="http://www.w3.org/1999/xlink" contentStyleType="text/css" height="392px" preserveAspectRatio="none" style="width:1023px;height:392px;background:#FFFFFF;" version="1.1" viewBox="0 0 1023 392" width="1023px" zoomAndPan="magnify"><title>Game Loop &#8212; Single Tick</title><defs/><g><text fill="#000000" font-family="sans-serif" font-size="14" font-weight="bold" lengthAdjust="spacing" textLength="174.1173" x="426.2825" y="29.9659">Game Loop &#8212; Single Tick</text><rect fill="none" height="241.6481" style="stroke:#000000;stroke-width:1.5;" width="1007.6823" x="10" y="96.1358"/><line style="stroke:#181818;stroke-width:0.5;stroke-dasharray:5.0,5.0;" x1="71" x2="71" y1="79.1358" y2="354.784"/><line style="stroke:#181818;stroke-width:0.5;stroke-dasharray:5.0,5.0;" x1="263.6392" x2="263.6392" y1="79.1358" y2="354.784"/><line style="stroke:#181818;stroke-width:0.5;stroke-dasharray:5.0,5.0;" x1="401.1313" x2="401.1313" y1="79.1358" y2="354.784"/><line style="stroke:#181818;stroke-width:0.5;stroke-dasharray:5.0,5.0;" x1="514.823" x2="514.823" y1="79.1358" y2="354.784"/><line style="stroke:#181818;stroke-width:0.5;stroke-dasharray:5.0,5.0;" x1="639.8346" x2="639.8346" y1="79.1358" y2="354.784"/><line style="stroke:#181818;stroke-width:0.5;stroke-dasharray:5.0,5.0;" x1="884.5048" x2="884.5048" y1="79.1358" y2="354.784"/><line style="stroke:#181818;stroke-width:0.5;stroke-dasharray:5.0,5.0;" x1="969.4605" x2="969.4605" y1="79.1358" y2="354.784"/><rect fill="#E2E2F0" height="33.0679" rx="2.5" ry="2.5" style="stroke:#181818;stroke-width:0.5;" width="102.4937" x="20" y="45.0679"/><text fill="#000000" font-family="sans-serif" font-size="14" lengthAdjust="spacing" textLength="88.4937" x="27" y="67.0339">InputHandler</text><rect fill="#E2E2F0" height="33.0679" rx="2.5" ry="2.5" style="stroke:#181818;stroke-width:0.5;" width="102.4937" x="20" y="353.784"/><text fill="#000000" font-family="sans-serif" font-size="14" lengthAdjust="spacing" textLength="88.4937" x="27" y="375.7499">InputHandler</text><rect fill="#E2E2F0" height="33.0679" rx="2.5" ry="2.5" style="stroke:#181818;stroke-width:0.5;" width="85.9177" x="221.6392" y="45.0679"/><text fill="#000000" font-family="sans-serif" font-size="14" lengthAdjust="spacing" textLength="71.9177" x="228.6392" y="67.0339">GameLoop</text><rect fill="#E2E2F0" height="33.0679" rx="2.5" ry="2.5" style="stroke:#181818;stroke-width:0.5;" width="85.9177" x="221.6392" y="353.784"/><text fill="#000000" font-family="sans-serif" font-size="14" lengthAdjust="spacing" textLength="71.9177" x="228.6392" y="375.7499">GameLoop</text><rect fill="#E2E2F0" height="33.0679" rx="2.5" ry="2.5" style="stroke:#181818;stroke-width:0.5;" width="104.6917" x="349.1313" y="45.0679"/><text fill="#000000" font-family="sans-serif" font-size="14" lengthAdjust="spacing" textLength="90.6917" x="356.1313" y="67.0339">PlayerModule</text><rect fill="#E2E2F0" height="33.0679" rx="2.5" ry="2.5" style="stroke:#181818;stroke-width:0.5;" width="104.6917" x="349.1313" y="353.784"/><text fill="#000000" font-family="sans-serif" font-size="14" lengthAdjust="spacing" textLength="90.6917" x="356.1313" y="375.7499">PlayerModule</text><rect fill="#E2E2F0" height="33.0679" rx="2.5" ry="2.5" style="stroke:#181818;stroke-width:0.5;" width="103.0117" x="463.823" y="45.0679"/><text fill="#000000" font-family="sans-serif" font-size="14" lengthAdjust="spacing" textLength="89.0117" x="470.823" y="67.0339">GhostModule</text><rect fill="#E2E2F0" height="33.0679" rx="2.5" ry="2.5" style="stroke:#181818;stroke-width:0.5;" width="103.0117" x="463.823" y="353.784"/><text fill="#000000" font-family="sans-serif" font-size="14" lengthAdjust="spacing" textLength="89.0117" x="470.823" y="375.7499">GhostModule</text><rect fill="#E2E2F0" height="33.0679" rx="2.5" ry="2.5" style="stroke:#181818;stroke-width:0.5;" width="126.6856" x="576.8346" y="45.0679"/><text fill="#000000" font-family="sans-serif" font-size="14" lengthAdjust="spacing" textLength="112.6856" x="583.8346" y="67.0339">CollisionDetector</text><rect fill="#E2E2F0" height="33.0679" rx="2.5" ry="2.5" style="stroke:#181818;stroke-width:0.5;" width="126.6856" x="576.8346" y="353.784"/><text fill="#000000" font-family="sans-serif" font-size="14" lengthAdjust="spacing" textLength="112.6856" x="583.8346" y="375.7499">CollisionDetector</text><rect fill="#E2E2F0" height="33.0679" rx="2.5" ry="2.5" style="stroke:#181818;stroke-width:0.5;" width="74.9557" x="847.5048" y="45.0679"/><text fill="#000000" font-family="sans-serif" font-size="14" lengthAdjust="spacing" textLength="60.9557" x="854.5048" y="67.0339">EventBus</text><rect fill="#E2E2F0" height="33.0679" rx="2.5" ry="2.5" style="stroke:#181818;stroke-width:0.5;" width="74.9557" x="847.5048" y="353.784"/><text fill="#000000" font-family="sans-serif" font-size="14" lengthAdjust="spacing" textLength="60.9557" x="854.5048" y="375.7499">EventBus</text><rect fill="#E2E2F0" height="33.0679" rx="2.5" ry="2.5" style="stroke:#181818;stroke-width:0.5;" width="75.2218" x="932.4605" y="45.0679"/><text fill="#000000" font-family="sans-serif" font-size="14" lengthAdjust="spacing" textLength="61.2218" x="939.4605" y="67.0339">Renderer</text><rect fill="#E2E2F0" height="33.0679" rx="2.5" ry="2.5" style="stroke:#181818;stroke-width:0.5;" width="75.2218" x="932.4605" y="353.784"/><text fill="#000000" font-family="sans-serif" font-size="14" lengthAdjust="spacing" textLength="61.2218" x="939.4605" y="375.7499">Renderer</text><path d="M10,96.1358 L83.288,96.1358 L83.288,105.8419 L73.288,115.8419 L10,115.8419 L10,96.1358 " fill="#EEEEEE" style="stroke:#000000;stroke-width:1.5;"/><rect fill="none" height="241.6481" style="stroke:#000000;stroke-width:1.5;" width="1007.6823" x="10" y="96.1358"/><text fill="#000000" font-family="sans-serif" font-size="13" font-weight="bold" lengthAdjust="spacing" textLength="28.288" x="25" y="111.0328">loop</text><text fill="#000000" font-family="sans-serif" font-size="11" font-weight="bold" lengthAdjust="spacing" textLength="61.2586" x="98.288" y="109.8947">[every tick]</text><polygon fill="#181818" points="82.2468,135.5479,72.2468,139.5479,82.2468,143.5479,78.2468,139.5479" style="stroke:#181818;stroke-width:1;"/><line style="stroke:#181818;stroke-width:1;" x1="76.2468" x2="263.598" y1="139.5479" y2="139.5479"/><text fill="#000000" font-family="sans-serif" font-size="13" lengthAdjust="spacing" textLength="68.2501" x="88.2468" y="133.7389">poll_input()</text><polygon fill="#181818" points="252.598,167.2539,262.598,171.2539,252.598,175.2539,256.598,171.2539" style="stroke:#181818;stroke-width:1;"/><line style="stroke:#181818;stroke-width:1;stroke-dasharray:2.0,2.0;" x1="71.2468" x2="258.598" y1="171.2539" y2="171.2539"/><text fill="#000000" font-family="sans-serif" font-size="13" lengthAdjust="spacing" textLength="169.3512" x="78.2468" y="165.4449">command (e.g. MOVE_LEFT)</text><polygon fill="#181818" points="389.4772,198.9599,399.4772,202.9599,389.4772,206.9599,393.4772,202.9599" style="stroke:#181818;stroke-width:1;"/><line style="stroke:#181818;stroke-width:1;" x1="264.598" x2="395.4772" y1="202.9599" y2="202.9599"/><text fill="#000000" font-family="sans-serif" font-size="13" lengthAdjust="spacing" textLength="112.8791" x="271.598" y="197.1509">update(command)</text><polygon fill="#181818" points="503.3288,230.6659,513.3288,234.6659,503.3288,238.6659,507.3288,234.6659" style="stroke:#181818;stroke-width:1;"/><line style="stroke:#181818;stroke-width:1;" x1="264.598" x2="509.3288" y1="234.6659" y2="234.6659"/><text fill="#000000" font-family="sans-serif" font-size="13" lengthAdjust="spacing" textLength="70.9151" x="271.598" y="228.8569">update_all()</text><polygon fill="#181818" points="628.1774,262.3719,638.1774,266.3719,628.1774,270.3719,632.1774,266.3719" style="stroke:#181818;stroke-width:1;"/><line style="stroke:#181818;stroke-width:1;" x1="264.598" x2="634.1774" y1="266.3719" y2="266.3719"/><text fill="#000000" font-family="sans-serif" font-size="13" lengthAdjust="spacing" textLength="42.588" x="271.598" y="260.5629">check()</text><polygon fill="#181818" points="872.9827,294.0779,882.9827,298.0779,872.9827,302.0779,876.9827,298.0779" style="stroke:#181818;stroke-width:1;"/><line style="stroke:#181818;stroke-width:1;" x1="640.1774" x2="878.9827" y1="298.0779" y2="298.0779"/><text fill="#000000" font-family="sans-serif" font-size="13" lengthAdjust="spacing" textLength="220.8052" x="647.1774" y="292.2689">publish(PelletEaten / GhostCollision)</text><polygon fill="#181818" points="958.0714,325.784,968.0714,329.784,958.0714,333.784,962.0714,329.784" style="stroke:#181818;stroke-width:1;"/><line style="stroke:#181818;stroke-width:1;" x1="264.598" x2="964.0714" y1="329.784" y2="329.784"/><text fill="#000000" font-family="sans-serif" font-size="13" lengthAdjust="spacing" textLength="120.0161" x="271.598" y="323.975">render(game_state)</text><!--SRC=[NP4xRiCm38PtdOB890z9TmyTsheF8463DkXgg3PX2v4bmQOBPEiXUiAUf9JyG1LFvCzFVFmcJGRXINK8U-Sy_7x_mBks3OidNPs5yAedNMclBC7cnVgHdfMj3VORK0Fe8AHCw1LQnRhX82qVZRfWVt3rQ30YFWfNFLetq3-c2NcAt3jZzA2TVK32YjoqJxMeALnyeQMxSOWCXcH8WJUqDVRpKVsS217M3tn_0Gfk07zHszvEf-VWUM8POvd5UenXoqGWSrwfwzWnaBXhTd1u_IZAVV5uoaJIRN8XXz7NYb3EZxA4YIuiIAcCaMbzFPw7jbYTvJnZrGCqNSzxZvyijlA8nY0LtD723KJZLsklTbnyoUT8Dlohou7uRIPO4Ny0]--></g></svg>